GIL02_xslow2_RRA_states
nRows=8
nColumns=47

# SIMM Motion File Header:
name GIL02_xslow2_RRA_states
datacolumns 47
datarows 8
otherdata 1
range 1.17849999999998080000 1.18199999999998040000
endheader
time	pelvis_tx	pelvis_ty	pelvis_tz	pelvis_tilt	pelvis_list	pelvis_rotation	hip_flexion_r	hip_adduction_r	hip_rotation_r	knee_angle_r	ankle_angle_r	subtalar_angle_r	mtp_angle_r	hip_flexion_l	hip_adduction_l	hip_rotation_l	knee_angle_l	ankle_angle_l	subtalar_angle_l	mtp_angle_l	lumbar_extension	lumbar_bending	lumbar_rotation	pelvis_tx_u	pelvis_ty_u	pelvis_tz_u	pelvis_tilt_u	pelvis_list_u	pelvis_rotation_u	hip_flexion_r_u	hip_adduction_r_u	hip_rotation_r_u	knee_angle_r_u	ankle_angle_r_u	subtalar_angle_r_u	mtp_angle_r_u	hip_flexion_l_u	hip_adduction_l_u	hip_rotation_l_u	knee_angle_l_u	ankle_angle_l_u	subtalar_angle_l_u	mtp_angle_l_u	lumbar_extension_u	lumbar_bending_u	lumbar_rotation_u
      1.17849999999998080000	      1.84290242852416420000	      0.93499364115006189000	     -0.29274534609916825000	     -3.32135801754605310000	      0.21588635879177004000	      2.82317020861896360000	     21.34042389874606400000	     -0.98306299005375208000	      9.09189344996340050000	     -9.94514650204537890000	     -7.52763707018113590000	     -0.00000000000003086632	      0.00000000000002560932	    -10.88474852102442400000	      3.59240899161310830000	     10.02073827817245400000	    -15.23633381767087200000	      3.76466138086346990000	      0.00000000000031988298	     -0.00000000000047655496	      2.56848646549750680000	      2.76018011366237780000	     -0.69628526068057139000	      0.67590779427843661000	      0.11708320121300982000	      0.10767613746959326000	      0.77575732230699113000	     -2.71764429255866390000	      3.21632903051546880000	    -38.45766813411341900000	      8.11998533484350200000	    -39.79253327057176600000	    -19.36662466404791500000	     62.44601119692432400000	     -0.00000000000011534664	      0.00000000000012206215	     26.21544951058431000000	     -9.73505082209666740000	    -24.08799346617365300000	   -111.23979367663217000000	   -122.04165331076845000000	      0.00000000000042867161	      0.00000000000022479656	      7.99413958325687530000	      5.17677648363743440000	     -7.43205073655605200000
      1.17899999999998070000	      1.84324038043260190000	      0.93505214383397550000	     -0.29269153932003428000	     -3.32096734538329620000	      0.21453615155419281000	      2.82479953760722100000	     21.32117372860219700000	     -0.97903454602046813000	      9.07182837996393760000	     -9.95480549813395400000	     -7.49643870367143620000	     -0.00000000000003092436	      0.00000000000002567100	    -10.87157656478542500000	      3.58753128485331140000	     10.00854870190298800000	    -15.29205078383419500000	      3.70357346759550370000	      0.00000000000032010110	     -0.00000000000047644598	      2.57248325663461630000	      2.76275523326576520000	     -0.70000223848855792000	      0.67590003645294128000	      0.11692751690456354000	      0.10755168510236737000	      0.78731501502184864000	     -2.68347341561543520000	      3.30068424155211910000	    -38.54368217157019000000	      7.99445161678080220000	    -40.46573812342615600000	    -19.26865698812465800000	     62.34691249910692100000	     -0.00000000000012023251	      0.00000000000013494422	     26.47182771938467000000	     -9.77629617768717020000	    -24.67099063002277900000	   -111.62760414460317000000	   -122.30984430164604000000	      0.00000000000043534707	      0.00000000000022213901	      7.99263285005419810000	      5.12402613016688770000	     -7.43558294618273230000
      1.17949999999998070000	      1.84357832875209550000	      0.93511056864853181000	     -0.29263779370446691000	     -3.32057031983845710000	      0.21320259906666397000	      2.82647058982663730000	     21.30187955007091500000	     -0.97506787868091660000	      9.05142973203225940000	     -9.96441445676497570000	     -7.46529073763400140000	     -0.00000000000003098524	      0.00000000000002573812	    -10.85827723943354300000	      3.58263217904411850000	      9.99606662169537330000	    -15.34796095830169400000	      3.64235169730195810000	      0.00000000000032031770	     -0.00000000000047633936	      2.57647870603630750000	      2.76530446097500300000	     -0.70372057178828273000	      0.67589342751944792000	      0.11677172220415527000	      0.10743149047952351000	      0.80116886316536295000	     -2.65102046011145060000	      3.38322114224010530000	    -38.63369514047659000000	      7.87287660910231500000	    -41.12682098409287300000	    -19.16647582648386100000	     62.24433406711288100000	     -0.00000000000012680818	      0.00000000000013486286	     26.72492880062278100000	     -9.82063985108245240000	    -25.25798217953896300000	   -112.01263294221029000000	   -122.57707045312938000000	      0.00000000000041962842	      0.00000000000021648971	      7.98877223773815180000	      5.07320296522825400000	     -7.43748411736671770000
      1.17999999999998060000	      1.84391627404781080000	      0.93516891553848258000	     -0.29258410711432853000	     -3.32016579360434430000	      0.21188484751564107000	      2.82818245450607050000	     21.28253936947200100000	     -0.97116100990695231000	      9.03070359601369970000	     -9.97397127704913440000	     -7.43419494221428230000	     -0.00000000000003104937	      0.00000000000002580453	    -10.84485218448948800000	      3.57771013167625410000	      9.98329006987411560000	    -15.40406294706809800000	      3.58099654151474220000	      0.00000000000032052530	     -0.00000000000047622489	      2.58047163504603060000	      2.76782875413874010000	     -0.70743945571791766000	      0.67588794474273584000	      0.11661582153725347000	      0.10731558737409322000	      0.81732020199833111000	     -2.62026902884937530000	      3.46393246813603110000	    -38.72769194944560000000	      7.75525879136894320000	    -41.77568080615768800000	    -19.06011332275719600000	     62.13831992717304300000	     -0.00000000000013198292	      0.00000000000013418002	     26.97473850523712000000	     -9.86806344070408950000	    -25.84887213611348500000	   -112.39484290676093000000	   -122.84342996991306000000	      0.00000000000040868455	      0.00000000000026462381	      7.98254865894433240000	      5.02428732853917200000	     -7.43778394544030430000
      1.18049999999998060000	      1.84425421688002930000	      0.93522718445248421000	     -0.29253047739712873000	     -3.31975261697824520000	      0.21058204947524270000	      2.82993421706398920000	     21.26315119752539200000	     -0.96731196121030949000	      9.00965610387880210000	     -9.98347387924446220000	     -7.40315298153671630000	     -0.00000000000003111368	      0.00000000000002587026	    -10.83130305096789300000	      3.57276360578365050000	      9.97021711627307640000	    -15.46035532617459100000	      3.51950839366861250000	      0.00000000000032072854	     -0.00000000000047609516	      2.58446085980173960000	      2.77032906267605790000	     -0.71115809374845640000	      0.67588356113322656000	      0.11645981557726598000	      0.10720400419404015000	      0.83576748441032556000	     -2.59120103355730080000	      3.54281230576056890000	    -38.82565223484047600000	      7.64159321337988030000	    -42.41222390325103900000	    -18.94960589507772400000	     62.02892278832678100000	     -0.00000000000012137118	      0.00000000000012406053	     27.22124762316243700000	     -9.91854591086987190000	    -26.44356110445204400000	   -112.77420208482920000000	   -123.10903106683337000000	      0.00000000000040053077	      0.00000000000026633490	      7.97395571322516530000	      4.97725801635958830000	     -7.43651185721151100000
      1.18099999999998050000	      1.84459215778772000000	      0.93528537533673450000	     -0.29247690238540874000	     -3.31932964362644920000	      0.20929336882343583000	      2.83172496055214710000	     21.24371305991565600000	     -0.96351875873650217000	      8.98829344046287560000	     -9.99292019811242580000	     -7.37216657536979450000	     -0.00000000000003117521	      0.00000000000002593493	    -10.81763148870224000000	      3.56779107933952620000	      9.95684589194818950000	    -15.51683666812410000000	      3.45788761948199100000	      0.00000000000032092925	     -0.00000000000047596209	      2.58844519470628140000	      2.77280632313905300000	     -0.71487571045127285000	      0.67588025019696218000	      0.11630370588271587000	      0.10709676951742370000	      0.85650971832841893000	     -2.56379903935782140000	      3.61985447524555770000	    -38.92755634173253300000	      7.53187553094850330000	    -43.03635608035068600000	    -18.83498961205607700000	     61.91618994094931600000	     -0.00000000000012768685	      0.00000000000013672318	     27.46444538453360100000	     -9.97206688832564940000	    -27.04195030331859700000	   -113.15067451353276000000	   -123.37397755365417000000	      0.00000000000040238152	      0.00000000000028160678	      7.96298644660851900000	      4.93209468481148060000	     -7.43369701452971480000
      1.18149999999998050000	      1.84493009730388800000	      0.93534348814068080000	     -0.29242337989901424000	     -3.31889572541111780000	      0.20801797596740312000	      2.83355376447841810000	     21.22422298801070500000	     -0.95977942902099789000	      8.96662183062504960000	    -10.00230819076368300000	     -7.34123733817465760000	     -0.00000000000003124060	      0.00000000000002600682	    -10.80383915837055600000	      3.56279103630399300000	      9.94317456618457030000	    -15.57350551454111600000	      3.39613450615551930000	      0.00000000000032112996	     -0.00000000000047582150	      2.59242344948460120000	      2.77526146469248450000	     -0.71859153845866752000	      0.67587798124529619000	      0.11614749028629083000	      0.10699390655664276000	      0.87954303230317243000	     -2.53804391311871140000	      3.69505417791208050000	    -39.03337937031695000000	      7.42609795499753120000	    -43.64799051766247100000	    -18.71630491526143600000	     61.80017760029217300000	     -0.00000000000012703336	      0.00000000000014993765	     27.70432608262095900000	    -10.02860336785526700000	    -27.64393750192820700000	   -113.52422948159706000000	   -123.63838339427186000000	      0.00000000000038474221	      0.00000000000030657472	      7.94963659870605800000	      4.88877542864375060000	     -7.42936834208957290000
      1.18199999999998040000	      1.84526803593758840000	      0.93540152280911937000	     -0.29236990774634780000	     -3.31844971930171000000	      0.20675505351661799000	      2.83541970681538840000	     21.20467903142794300000	     -0.95609200531115246000	      8.94464754733398770000	    -10.01163583158560900000	     -7.31036693593230690000	     -0.00000000000003130312	      0.00000000000002608134	    -10.78992771661711100000	      3.55776197710355250000	      9.92920137158639450000	    -15.63036040566329600000	      3.33424930789118790000	      0.00000000000032132275	     -0.00000000000047567775	      2.59639443374199490000	      2.77769540239841990000	     -0.72230483125562295000	      0.67587672405382215000	      0.11599116750653932000	      0.10689543874875847000	      0.90486409159350156000	     -2.51391719335741650000	      3.76840629426346620000	    -39.14309700960993900000	      7.32425333839676010000	    -44.24703985426164400000	    -18.59359171010985900000	     61.68093624316912100000	     -0.00000000000012375834	      0.00000000000015184989	     27.94088245564771700000	    -10.08813300095042100000	    -28.24942114515438300000	   -113.89483222498760000000	   -123.90235800364971000000	      0.00000000000039568061	      0.00000000000026487898	      7.93390137017373400000	      4.84727922800189860000	     -7.42355444287633850000
